<svg viewBox="0 0 217 134" fill="none" xmlns="http://www.w3.org/2000/svg">
  <path fill-rule="evenodd" clip-rule="evenodd" d="M98.668 68.372c0 27.268-21.007 49.373-46.92 49.373-25.914 0-46.92-22.105-46.92-49.373 0-.253.00099-.506.00499-.759H0v-3.039h4.964C6.807 39.081 27.049 19 51.748 19c24.475 0 44.574 19.72 46.729 44.884h20.288C120.92 38.72 141.018 19 165.494 19c24.699 0 44.94 20.081 46.783 45.574H217v3.039h-4.592c.004.253.006.506.006.759 0 27.268-21.007 49.373-46.92 49.373-25.914 0-46.921-22.105-46.921-49.373 0-.5.008-.999.022-1.496H98.647c.014.497.021.996.021 1.496Zm-4.53 0c0 24.471-18.912 44.309-42.241 44.309-23.33 0-42.242-19.838-42.242-44.309 0-24.471 18.912-44.308 42.242-44.308 23.329 0 42.241 19.837 42.241 44.308Zm71.207 44.309c23.329 0 42.241-19.838 42.241-44.309 0-24.471-18.912-44.308-42.241-44.308s-42.242 19.837-42.242 44.308 18.913 44.309 42.242 44.309Z" fill="#000"/>
  <path d="m82 120 7.667 4.092c11.77 6.281 25.896 6.281 37.666 0L135 120v5.143l-9.04 4.386c-11.025 5.349-23.895 5.349-34.92 0L82 125.143V120Z" fill="red"/>
  <path fill-rule="evenodd" clip-rule="evenodd" d="M191.997 67.641c.002-.213.003-.427.003-.641 0-13.807-3.806-25-8.5-25S175 53.193 175 67s3.806 25 8.5 25c4.434 0 8.076-9.987 8.465-22.73-.239 4.369-1.7 7.73-3.465 7.73-1.933 0-3.5-4.029-3.5-9s1.567-9 3.5-9c1.886 0 3.424 3.837 3.497 8.641ZM76.997 67.641c.002-.213.003-.427.003-.641 0-13.807-3.806-25-8.5-25S60 53.193 60 67s3.806 25 8.5 25c4.434 0 8.076-9.987 8.465-22.73-.239 4.369-1.7 7.73-3.465 7.73-1.933 0-3.5-4.029-3.5-9s1.567-9 3.5-9c1.886 0 3.424 3.837 3.497 8.641ZM160.297 8.91003c.434.25.924.358 1.468.325.42-.026.751-.116.995-.27.243-.157.427-.32899.552-.51599.125-.19.22-.34601.286-.47001l.119-.007.064 1.004.97-.05899-.552-8.710009-1.004.061005.204 3.214994-.085.00501c-.081-.109-.194-.24701-.338-.41501-.142-.17-.342-.318-.6-.441-.256-.127-.597-.178-1.022-.152-.55.034-1.026.201-1.428.501-.403.301-.706.71101-.909 1.22901-.203.519-.283 1.122-.24 1.808.044.692.2 1.284.467 1.778.268.49.618.86099 1.053 1.11399Zm2.548-.962c-.265.227-.598.352-1.001.377-.42.025-.778-.06399-1.076-.26799-.295-.207-.527-.494-.695-.862-.166-.372-.264-.79001-.293-1.25501-.029-.459.014-.87699.13-1.25399.118-.38.311-.68701.578-.91901.269-.236.617-.367 1.042-.392.409-.025.758.05699 1.049.24699.291.188.519.461.684.821.165.357.263.78002.294 1.26702.031.494-.013.933-.134 1.319-.121.383-.314.68999-.578.91899Zm-11.392-1.595.707 3.87297-.99.174-1.177-6.43897.957-.168.184 1.006.084-.014c.091-.354.273-.65699.544-.90899.271-.255.65-.426 1.137-.511.437-.076.835-.054 1.195.067.36.119.663.34299.911.67099.247.326.421.763.521 1.311l.748 4.09101-.991.17399-.735-4.024c-.093-.506-.296-.87699-.611-1.11299-.315-.239-.702-.31901-1.161-.23801-.316.055-.586.17301-.81.35401-.221.18-.379.41399-.474.70199-.095.287-.108.618-.039.993Zm-6.85 5.60897c.37.056.754.026 1.153-.09.365-.106.659-.25.879-.432.221-.183.385-.373.491-.573.106-.199.171-.376.195-.531l.049-.014.257.848.966-.28-1.248-4.12798c-.15-.498-.352-.87099-.605-1.11999-.254-.249-.527-.41099-.819-.48599-.29-.075-.574-.09801-.853-.067-.277.02699-.516.06899-.718.12799-.317.092-.625.228-.926.41-.3.179-.555.41601-.765.71001-.209.291-.338.65099-.386 1.07899l1.015.06101c.037-.259.157-.52801.358-.80501.201-.277.532-.482.993-.616.445-.129.81-.11399 1.096.04601.288.159.493.43999.615.84199l.01.03301c.046.155.023.28-.07.375-.09.094-.251.18899-.483.28599-.23.093-.528.22001-.896.38001-.28.122-.555.25799-.824.40699-.268.146-.501.317-.7.514-.199.197-.335.428-.409.695-.074.264-.057.57597.051.93497.124.408.324.728.602.961.278.23.602.374.972.432Zm1.937-1.502c-.217.226-.516.394-.898.505-.385.111-.728.119-1.03.023-.3-.099-.501-.316-.602-.65-.074-.245-.067-.45697.021-.63697.091-.182.233-.33999.427-.47399.196-.136.415-.25701.656-.36301.099-.044.23-.099.39-.166.163-.071.329-.146.498-.224.171-.083.319-.16301.444-.24001.127-.081.203-.15199.229-.21299l.266.88099c.079.261.086.53.021.806-.062.275-.203.52598-.422.75198Zm-8.563 3.914-2.504-6.04797.903-.358.378.913.064-.025c-.013-.343.087-.666.3-.968.214-.301.502-.52401.867-.66901.068-.027.155-.05999.259-.09899.104-.038.183-.06501.238-.08001l.391.944c-.034.005-.112.02201-.232.05201-.119.025-.24.063-.364.112-.296.117-.534.284-.715.5-.18.212-.293.452-.338.721-.044.265-.01.534.103.80697l1.584 3.827-.934.371Zm-7.332 3.459-4.15-7.678 2.708-1.40497c.54-.28 1.035-.41799 1.485-.41499.449.001.843.111 1.182.332.338.219.608.515.811.89.178.33.266.63296.264.90996 0 .275-.062.525-.186.749-.122.223-.277.422-.467.597l.041.075c.245-.108.528-.149.849-.123.32.025.637.136.95.332.312.197.578.497.797.902.208.385.307.777.297 1.176-.011.399-.158.787-.441 1.164-.284.378-.731.725-1.341 1.041l-2.799 1.453Zm.492-1.312 1.861-.965c.613-.318.985-.661 1.115-1.03.131-.372.106-.727-.077-1.064-.14-.26-.337-.465-.589-.616-.254-.153-.54-.231-.859-.236-.32-.006-.649.078-.987.253l-1.907.989 1.443 2.669Zm-1.88-3.479 1.74-.902c.282-.147.507-.334.674-.561.171-.23.268-.479.294-.748.028-.27-.031-.541-.177-.811-.182-.33697-.455-.56198-.819-.67398-.366-.114-.806-.03799-1.32.22901l-1.771.91797 1.379 2.549Zm45.432-7.42696-.532 3.90199-.997-.131.884-6.485.964.12599-.138 1.013.084.01101c.197-.309.464-.54399.801-.70299.338-.162.752-.21101 1.242-.14701.439.058.811.19799 1.116.42099.306.221.525.52501.659.91201.134.384.163.852.088 1.404l-.562 4.12097-.997-.13098.552-4.05299c.07-.51-.008-.924-.234-1.243-.226-.322-.57-.51299-1.032-.57299-.318-.042-.612-.01-.881.095-.267.105-.49.28099-.67.52699-.18.246-.295.55701-.347.93401Zm7.382 5.20596c.29.232.636.396 1.039.495.37.09.697.111.982.063.285-.048.524-.131.719-.25.194-.12.342-.24.443-.362l.05.012-.218.859.977.238 1.06-4.17997c.128-.504.147-.926.058-1.267-.09-.34-.241-.615-.455-.825-.211-.209-.444-.37001-.7-.48201-.252-.114-.481-.19599-.685-.24499-.32-.078-.657-.113-1.011-.106-.35.005-.692.083-1.026.233-.33.147-.627.394-.891.739l.844.556c.166-.205.408-.37699.725-.51599.316-.14.708-.15301 1.174-.03901.45.109.757.304.921.583.166.281.197.62499.094 1.03199l-.008.03301c-.04.157-.125.253-.254.289-.126.037-.315.039-.564.008-.247-.034-.57-.073-.969-.118-.305-.033-.612-.05199-.921-.05699-.306-.007-.596.02398-.869.09498s-.51.20401-.711.39701c-.201.191-.348.468-.44.832-.105.413-.097.789.022 1.128.12.33597.324.62097.614.85497Zm2.445-.334c-.303.087-.648.083-1.035-.011-.389-.095-.689-.258-.899-.49097-.208-.234-.268-.521-.182-.86.063-.248.178-.42699.347-.53799.172-.113.377-.17901.613-.19701.24-.021.491-.01701.753.01199.108.012.249.02801.422.05001.177.02.359.038.545.054.19.014.359.018.507.013.151-.007.254-.03.307-.069l-.226.892c-.067.264-.2.499-.399.70497-.196.207-.447.353-.753.44Zm3.984 2.167 2.394-6.09197.909.343-.374.952.08.02999c.255-.277.56-.45199.915-.52499.356-.075.734-.03699 1.133.11301.404.153.704.37099.901.65399.2.282.312.61401.336.99701l.064.02398c.28-.256.614-.41699 1-.48399.388-.069.801-.021 1.239.144.548.207.929.546 1.143 1.019.215.46897.182 1.06297-.1 1.77897l-1.602 4.077-.941-.355 1.602-4.077c.177-.449.18-.817.008-1.103-.171-.28698-.424-.49296-.759-.61896-.431-.163-.815-.159-1.154.011-.337.167-.583.44799-.738.84196l-1.559 3.966-.957-.361 1.64-4.17197c.136-.347.133-.66799-.01-.96499-.142-.299-.391-.51601-.747-.65001-.244-.093-.498-.11401-.762-.06501-.261.051-.502.166-.722.347-.217.18-.385.41901-.502.71701l-1.496 3.80797-.941-.355Zm10.504 4.171c.272.456.687.831 1.245 1.124.393.206.779.331 1.159.377.381.042.738.011 1.07-.093.334-.108.625-.282.874-.524l-.73-.69c-.184.16-.383.271-.595.333-.21.059-.429.073-.657.04-.224-.035-.454-.113-.688-.236-.359-.188-.633-.431-.82-.728-.186-.3-.274-.639-.264-1.019.013-.345.117-.712.313-1.101l4.21 2.207.204-.374c.293-.536.468-1.025.525-1.466.057-.442.025-.837-.096-1.186-.118-.351-.298-.653-.538-.907-.24-.254-.511-.46-.812-.619-.524-.274-1.051-.387-1.583-.339-.527.048-1.024.24-1.489.576-.462.335-.853.797-1.175 1.386-.321.588-.495 1.161-.521 1.718-.022.556.1 1.063.368 1.521Zm1.326-3.279 3.302 1.731c.177-.324.27-.647.278-.97.01-.322-.064-.619-.222-.891-.157-.271-.396-.491-.718-.66-.354-.186-.709-.26-1.064-.221-.35.037-.67.158-.96.362-.248.175-.453.392-.616.649Z" fill="#000"/>
</svg>
