<svg viewBox="0 0 238 138" fill="none" xmlns="http://www.w3.org/2000/svg">
  <path fill-rule="evenodd" clip-rule="evenodd" d="M98.6679 65.3723c0 27.2676-21.0068 49.3727-46.9201 49.3727S4.82759 92.6399 4.82759 65.3723c0-.2536.00181-.5068.00544-.7595H0v-3.0383h4.96434C6.80731 36.0814 27.0489 16 51.7478 16c24.4754 0 44.5738 19.7198 46.7289 44.8839h20.2883C120.92 35.7198 141.018 16 165.494 16c24.699 0 44.94 20.0814 46.783 45.5745H217v3.0383h-4.592c.004.2527.006.5059.006.7595 0 27.2676-21.007 49.3727-46.92 49.3727-25.914 0-46.921-22.1051-46.921-49.3727 0-.5004.008-.9992.022-1.4961H98.6468c.0141.4969.0211.9957.0211 1.4961Zm-4.53 0c0 24.471-18.9121 44.3087-42.2413 44.3087-23.3293 0-42.24142-19.8377-42.24142-44.3087 0-24.4709 18.91212-44.3085 42.24142-44.3085 23.3292 0 42.2413 19.8376 42.2413 44.3085Zm71.2071 44.3087c23.329 0 42.241-19.8377 42.241-44.3087 0-24.4709-18.912-44.3085-42.241-44.3085s-42.242 19.8376-42.242 44.3085c0 24.471 18.913 44.3087 42.242 44.3087ZM22 13.5407l7.6666-4.09164c11.77-6.28154 25.8969-6.28153 37.6668 0L75 13.5407V8.39781l-9.0395-4.38576c-11.0257-5.3494-23.8952-5.3494-34.921 0L22 8.39781v5.14289ZM82 123.541l7.6666 4.091c11.7704 6.282 25.8964 6.282 37.6664 0l7.667-4.091v5.143l-9.04 4.385c-11.025 5.35-23.895 5.35-34.9205 0L82 128.684v-5.143ZM147.667 9.44906 140 13.5407V8.39781l9.04-4.38576c11.025-5.3494 23.895-5.3494 34.92 0L193 8.39781v5.14289l-7.667-4.09164c-11.77-6.28153-25.896-6.28154-37.666 0Z" fill="#000"/>
  <path fill-rule="evenodd" clip-rule="evenodd" d="M66.5 90c4.6944 0 8.5-11.1929 8.5-25s-3.8056-25-8.5-25S58 51.1929 58 65s3.8056 25 8.5 25Zm118 0c4.694 0 8.5-11.1929 8.5-25s-3.806-25-8.5-25-8.5 11.1929-8.5 25 3.806 25 8.5 25Z" fill="#000"/>
  <path d="m195.686 15.6952 5.459-6.80934 2.368 1.92294c.473.3831.796.7812.971 1.1941.177.4106.23.8143.16 1.2109-.069.3944-.236.7578-.503 1.0903-.234.2926-.48.4921-.736.5986-.255.1082-.51.1498-.766.1245-.255-.0234-.5-.0873-.737-.1917l-.053.0665c.196.1816.346.4239.449.727.103.3031.126.6361.068.9989-.058.3629-.231.7238-.519 1.0829-.274.3414-.597.5857-.97.733s-.79.1656-1.251.0548c-.461-.1108-.958-.3828-1.492-.8161l-2.448-1.9873Zm1.407-.0655 1.627 1.3214c.536.435 1 .6397 1.392.614.396-.0262.714-.1889.954-.4881.185-.2305.297-.4908.337-.7807.041-.2922.001-.5847-.121-.8777-.121-.2951-.328-.5627-.624-.8026l-1.668-1.3536-1.897 2.3673Zm2.473-3.0854 1.522 1.2354c.247.2005.509.3326.786.3962.279.0654.548.0569.807-.0256.261-.0806.488-.2406.679-.48.24-.2993.34-.6372.3-1.0139-.039-.3788-.283-.7509-.733-1.1161l-1.548-1.2569-1.813 2.2609ZM200.293 19.7087l4.534-4.721.697.6766-.685.713.049.0475c.31-.1505.647-.1897 1.011-.1176.364.0721.687.2447.968.5176.053.0515.119.1168.196.196.078.0792.135.1406.172.1843l-.709.7376c-.018-.0299-.065-.0935-.141-.1908-.072-.0975-.156-.1927-.252-.2856-.228-.2216-.478-.3712-.75-.449-.268-.0779-.535-.0832-.8-.0161-.261.0671-.494.2072-.699.4203l-2.869 2.9874-.722-.7002ZM204.71 24.6388c-.272-.3129-.461-.6484-.565-1.0065-.102-.3599-.107-.7132-.013-1.0599.096-.3486.304-.6634.624-.9444.282-.2473.559-.392.831-.4341.275-.0441.543-.0169.806.0815.262.0984.516.2386.761.4205.249.1823.488.3749.718.578.299.2663.54.4843.721.6539.186.1698.34.2761.464.3187.126.0448.249.0138.371-.093l.026-.0225c.316-.2772.486-.5794.51-.9066.026-.3251-.113-.6623-.417-1.0116-.315-.3622-.642-.5768-.979-.644-.337-.0671-.631-.0637-.883.01l-.371-.9448c.411-.1337.793-.1665 1.146-.0983.357.0685.68.2012.968.3982.292.1972.546.4201.763.6687.138.1586.277.3576.418.5971.144.2397.243.5066.295.8006.055.2962.021.6107-.1.9435-.12.3327-.376.6705-.767 1.0133l-3.242 2.8436-.661-.7586.667-.5845-.034-.0386c-.151.0423-.34.0568-.566.0435-.226-.0132-.469-.082-.728-.2064s-.513-.3302-.763-.6173Zm.78-.48c.261.3.54.5014.836.6041.299.1049.586.1283.864.0703.279-.0558.521-.1736.726-.3534l.692-.607c-.067.0016-.163-.0382-.291-.1194-.123-.0809-.258-.1818-.404-.3027-.143-.1205-.28-.2398-.413-.3576-.129-.1177-.234-.2125-.315-.2846-.198-.1747-.4-.3224-.607-.4433-.202-.1206-.406-.1838-.611-.1895-.2-.0055-.397.0761-.589.2447-.263.2304-.376.5021-.341.8152.039.3133.19.621.453.9232ZM210.936 26.0008l-3.199 2.2963-.584-.8184 5.317-3.8172.564.7906-.83.5965.049.0693c.359-.069.712-.0352 1.057.1015.348.135.665.4037.953.8059.257.3607.409.7293.454 1.1058.048.3749-.023.7443-.214 1.1083-.188.3623-.508.7059-.96 1.0306l-3.379 2.4255-.584-.8184 3.323-2.3857c.418-.2999.665-.6422.743-1.0268.08-.3863-.015-.7691-.286-1.1482-.186-.2613-.41-.4542-.67-.5787-.258-.1223-.538-.1645-.839-.1267-.301.0378-.606.1678-.915.3898ZM211.695 34.8266c-.271-.4732-.391-.9596-.36-1.4592.034-.501.212-.9797.533-1.4361.324-.4578.786-.8594 1.387-1.2046.596-.3424 1.172-.5372 1.728-.5845.556-.0473 1.058.0428 1.506.2704.448.2275.809.5803 1.083 1.0585.212.3697.318.6972.317.9823.004.2863-.039.5306-.13.7332-.086.2035-.16.3656-.222.4863l.042.074 2.794-1.6045.5.8725-7.568 4.3466-.483-.843.872-.5009-.059-.1035c-.14-.0046-.323-.0208-.549-.0486-.223-.0292-.459-.1181-.707-.2667-.247-.15-.475-.4074-.684-.7722Zm.851-.3316c.201.35.462.5934.782.7302.324.1355.684.1726 1.081.1116.4-.0625.814-.2168 1.243-.463.423-.2434.759-.518 1.006-.8237.25-.3072.394-.6325.433-.9759.041-.3448-.04-.6947-.243-1.0496-.212-.3697-.484-.6234-.815-.7609-.327-.1365-.687-.1737-1.08-.1115-.39.0631-.784.2093-1.183.4385-.404.2321-.736.5045-.995.8173-.256.3139-.411.6488-.466 1.0045-.051.3569.028.7177.237 1.0825ZM219.224 41.591l-3.699 1.3497-.347-.9441 6.149-2.2437.335.9121-.961.3506.029.08c.366.0301.697.1572.994.3814.3.2233.535.5669.705 1.031.153.416.201.8112.145 1.1856-.054.3734-.221.7096-.502 1.0086-.278.298-.678.5424-1.201.7333l-3.907 1.4257-.347-.9441 3.843-1.4024c.483-.1762.813-.4389.991-.7879.18-.3501.19-.7438.029-1.1812-.11-.3013-.274-.5468-.492-.7365-.217-.1869-.476-.3027-.777-.3471-.301-.0445-.63-.0015-.987.129ZM217.471 49.7847c-.105-.4013-.124-.785-.058-1.1511.068-.3668.222-.6837.46-.9506.241-.2676.568-.4546.981-.5611.363-.0937.676-.0982.939-.0135.266.084.494.2289.686.4347.192.2057.357.4447.496.717.142.2743.271.5535.387.8377.15.372.269.6743.356.9071.091.2347.182.3989.274.4925.093.0964.218.1244.374.0839l.033-.0085c.408-.1051.695-.298.862-.5788.168-.2781.194-.6411.076-1.0891-.121-.4645-.318-.8024-.591-1.0137-.272-.2114-.538-.3408-.797-.3884l.088-1.0086c.428.0655.786.208 1.072.4275.29.2215.521.4848.691.7899.175.3071.304.62.387.9388.053.2034.09.4434.109.7201.023.2786-.007.5608-.091.8465-.083.2884-.253.5538-.51.796-.257.2423-.637.4284-1.14.5583l-4.176 1.0774-.254-.973.858-.2214-.013-.0495c-.155-.0305-.331-.1024-.528-.2159-.197-.1134-.384-.2838-.561-.511-.177-.2272-.313-.5249-.41-.8932Zm.914-.0773c.101.3848.261.6896.481.9144.221.2275.469.3778.744.4507.275.0757.545.0794.809.0113l.891-.23c-.06-.0284-.129-.1074-.207-.2369-.075-.1275-.151-.278-.229-.4516-.074-.1716-.144-.3397-.211-.5044-.063-.1627-.115-.2945-.156-.3954-.099-.2443-.215-.4669-.346-.6676-.129-.1987-.283-.3465-.464-.4436-.178-.095-.391-.1106-.638-.0467-.339.0873-.562.2784-.669.5732-.105.2969-.106.6391-.005 1.0266ZM218.414 53.3358l6.478-.9362.144.961-1.012.1462.012.0843c.366.0849.667.2639.903.5369.239.2726.39.6196.453 1.041.064.4271.02.7966-.131 1.1084-.149.3142-.384.5764-.706.7865l.01.0674c.36.1175.663.3277.909.6308.249.3027.408.6859.478 1.1495.086.5788-.024 1.0784-.332 1.4989-.305.4201-.838.6852-1.6.7953l-4.336.6265-.149-.9946 4.336-.6266c.478-.069.8-.249.966-.54.166-.291.223-.6135.17-.9675-.068-.4552-.258-.7879-.571-.9981-.31-.2107-.675-.2857-1.094-.2252l-4.217.6095-.152-1.0115 4.437-.6412c.369-.0532.647-.2155.837-.4868.192-.2717.26-.5958.203-.9723-.038-.2585-.143-.4902-.315-.6951-.171-.202-.389-.3542-.654-.4566-.262-.0999-.552-.1269-.87-.081l-4.048.5852-.149-.9947Z" fill="#000"/>
  <path d="M219.278 63.7293c-.025-.6301.091-1.1785.351-1.6452.263-.4639.64-.828 1.133-1.0924.495-.2617 1.078-.4041 1.748-.4273.67-.0232 1.265.0784 1.786.3048.524.2291.939.5587 1.243.9887.308.4328.474.9444.498 1.5348.014.3406-.029.679-.129 1.015-.1.3361-.272.6448-.517.9261-.241.2813-.567.51-.978.6863-.411.1763-.922.275-1.532.2961l-.426.0148-.206-5.0413.869-.0301.164 4.0194c.369-.0128.696-.098.979-.2556.284-.1548.504-.37.661-.6455.156-.2726.227-.5906.212-.9539-.016-.4002-.13-.7431-.34-1.0286-.208-.2827-.473-.4967-.794-.6419-.322-.1452-.663-.2115-1.023-.199l-.58.0201c-.494.0171-.909.1167-1.245.299-.334.1849-.584.4338-.75.7466-.164.3126-.237.6719-.221 1.0778.011.264.058.5012.14.7115.086.2131.207.3951.364.546.159.1508.354.2648.585.3421l-.233.9802c-.334-.0907-.63-.2524-.89-.4851-.257-.2327-.462-.524-.615-.874-.151-.3501-.236-.7466-.254-1.1894Z" fill="#000"/>
</svg>
